<?xml version="1.0" encoding="utf-8"?>
<!-- Generator: Adobe Illustrator 23.1.0, SVG Export Plug-In . SVG Version: 6.00 Build 0)  -->
<svg version="1.1" id="Layer_1" xmlns="http://www.w3.org/2000/svg" xmlns:xlink="http://www.w3.org/1999/xlink" x="0px" y="0px"
	 viewBox="0 0 512 512" style="enable-background:new 0 0 512 512;" xml:space="preserve">
<style type="text/css">
	.st0{fill:#0296E5;}
	.st1{fill:#FFFFFF;}
	.st2{fill:#E82F3E;}
	.st3{fill:#EAEAE8;}
	.st4{fill:#0276B4;}
	.st5{fill:#CBCBCB;}
	.st6{fill:#015078;}
</style>
<g>
	<path class="st0" d="M324.5,214.4L324.5,214.4c-17.2-7.6-24.9-27.7-17.3-44.9l0,0c7.6-17.2,27.7-24.9,44.9-17.3l0,0
		c17.2,7.6,24.9,27.7,17.3,44.9l0,0C361.8,214.2,341.7,222,324.5,214.4z"/>
	<g>
		<path class="st1" d="M343.9,172.6c0.7,0.3,1.2,0.9,1.5,1.6c0.2,0.8,0.2,1.4,0,2.1l-1.4,1.6c0.1,0.4,0.2,0.8,0,1.3
			c-0.1,0.2-0.1,0.5-0.3,0.8c-0.4,0.9-0.8,1.6-1.4,2.3c-0.5,0.7-1,1.4-1.4,2.4l-0.2,0.5c-0.1,0.2-0.2,0.5-0.4,0.7
			c-0.2,0.3-0.4,0.5-0.6,0.7c-0.2,0.3-0.5,0.6-0.7,0.9l-0.3,0.7c-0.2,0.5-0.5,0.8-0.8,1.1c-0.3,0.2-0.6,0.6-1,1
			c-0.2,0.3-0.5,0.6-0.9,0.9c-0.4,0.3-0.7,0.7-0.9,1.1c-0.1,0.2-0.1,0.4-0.2,0.7c0,0.3,0,0.7,0,1c0,0.4,0.1,0.7,0.3,1
			c0.2,0.3,0.4,0.5,0.7,0.7c0.4,0.2,0.7,0.2,1.1,0.1c0.4-0.1,0.7-0.2,1-0.4c0.3-0.1,0.6-0.2,0.9-0.3c0.3,0,0.6,0,0.9,0.1l1.2,0.6
			c0.3,0.1,0.4,0.3,0.3,0.6s-0.2,0.6-0.3,0.9c-0.1,0.1-0.4,0.3-0.9,0.5c-0.6,0.2-1.2,0.5-1.9,0.7c-0.7,0.2-1.4,0.5-2,0.7
			c-0.7,0.2-1.1,0.3-1.3,0.4c-0.3,0.2-0.8,0.6-1.6,1.2c-0.8,0.6-1.6,1.1-2.4,1.6c-0.9,0.5-1.7,1-2.6,1.3s-1.5,0.4-1.9,0.2
			c-0.3-0.1-0.6-0.4-0.9-0.7c-0.3-0.4-0.5-0.8-0.7-1.2c-0.2-0.5-0.3-0.9-0.3-1.4c0-0.4,0-0.8,0.2-1.2l0.5-1.1
			c0.2-0.3,0.3-0.7,0.3-0.9c0.1-0.3,0-0.5-0.3-0.6l0.6-1.2l1.3-1.6l1.4-3.1c0.3-0.7,0.6-1.1,1-1.5c0.3-0.3,0.7-0.8,0.9-1.4l0.3-0.6
			c0.1-0.3,0.4-0.7,0.9-1.2c0.4-0.5,0.9-1,1.4-1.6s1-1.1,1.5-1.7c0.5-0.5,0.8-1.1,1-1.5c0.2-0.3,0.2-0.8,0.1-1.3s-0.5-1-1.1-1.3
			c-0.3-0.1-0.5-0.1-0.8,0s-0.9-0.1-1.8-0.5c-0.1-0.1-0.1-0.2-0.1-0.4c-0.1-0.3,0-0.7,0.2-1.1l0.5-1.1c0.2-0.4,0.8-0.8,1.9-1.2
			s2.3-0.8,3.6-1.1c1.3-0.3,2.6-0.6,3.8-0.8C343,172.5,343.7,172.5,343.9,172.6z M351,157.2c0.2,0.1,0.4,0.1,0.7,0.2
			c0.3,0.1,0.6,0.1,1,0.2c0.3,0.1,0.7,0.1,1,0.2c0.3,0.1,0.5,0.1,0.7,0.2c0.5,0.5,0.7,1,0.7,1.6c-0.1,0.6,0,1.3,0.1,2
			c-0.2,0.4-0.3,0.7-0.4,1.1c-0.1,0.4-0.2,0.7-0.3,1c-0.1,0.3-0.3,0.5-0.7,0.8c-0.3,0.3-0.6,0.7-0.9,1.3c-0.2,0.3-0.5,0.6-0.9,1
			c-0.3,0.4-0.7,0.7-1.1,1s-0.8,0.4-1.3,0.5c-0.4,0.1-0.9,0-1.3-0.3c-0.6-0.3-1.2-0.8-1.7-1.5s-0.8-1.5-0.9-2.3
			c-0.2-0.4-0.1-0.8,0.2-1.3c0.3-0.5,0.6-0.9,0.7-1.3c0.5-1.2,1.1-2.1,1.9-2.6C349.2,158.3,350.1,157.8,351,157.2z"/>
	</g>
</g>
<g>
	<path class="st0" d="M72,216.5L72,216.5c-13.4,5.2-28.4-1.5-33.6-14.9l0,0c-5.2-13.4,1.5-28.4,14.9-33.6l0,0
		c13.4-5.2,28.4,1.5,33.6,14.9l0,0C92,196.3,85.4,211.3,72,216.5z"/>
	<g>
		<path class="st1" d="M59.9,183.4c0.6-0.2,1.1-0.2,1.7,0.1c0.5,0.3,0.9,0.7,1.1,1.1l0.1,1.6c0.3,0.1,0.5,0.4,0.7,0.7
			c0.1,0.2,0.2,0.3,0.3,0.5c0.3,0.7,0.4,1.3,0.5,2c0.1,0.6,0.2,1.3,0.5,2L65,192c0.1,0.2,0.1,0.4,0.2,0.6c0.1,0.2,0.1,0.5,0.1,0.7
			c0,0.3,0.1,0.5,0.1,0.8l0.2,0.6c0.1,0.4,0.2,0.7,0.2,1s0,0.6,0,1.1c0,0.3,0,0.6,0,1c0,0.3,0,0.7,0.2,1.1c0.1,0.1,0.2,0.3,0.3,0.5
			c0.2,0.2,0.3,0.4,0.6,0.5c0.2,0.2,0.5,0.3,0.7,0.4c0.2,0.1,0.5,0.1,0.7,0c0.3-0.1,0.5-0.3,0.6-0.5c0.2-0.3,0.3-0.5,0.3-0.8
			c0.1-0.2,0.2-0.5,0.4-0.6c0.1-0.2,0.3-0.3,0.6-0.4l1-0.4c0.2-0.1,0.4,0,0.5,0.2s0.2,0.4,0.3,0.7c0,0.1,0,0.4-0.2,0.8
			c-0.2,0.4-0.4,0.9-0.6,1.4s-0.5,1-0.7,1.5c-0.3,0.5-0.4,0.8-0.5,0.9c0,0.3-0.1,0.8-0.2,1.5s-0.3,1.4-0.4,2.2
			c-0.2,0.8-0.4,1.5-0.7,2.1c-0.3,0.6-0.6,1-0.9,1.2c-0.2,0.1-0.5,0.1-0.9,0.1s-0.7-0.1-1-0.3s-0.6-0.4-0.9-0.6
			c-0.3-0.2-0.4-0.5-0.5-0.7l-0.3-0.8c-0.1-0.3-0.2-0.5-0.3-0.7s-0.3-0.2-0.5-0.2l-0.4-1l-0.1-1.6l-0.9-2.4
			c-0.2-0.5-0.3-0.9-0.3-1.3c0-0.4-0.1-0.8-0.2-1.3l-0.2-0.5c-0.1-0.2-0.1-0.6-0.2-1.1c0-0.5,0-1-0.1-1.6c0-0.6-0.1-1.1-0.1-1.7
			c0-0.6-0.1-1-0.3-1.4c-0.1-0.3-0.3-0.5-0.7-0.8c-0.3-0.2-0.8-0.3-1.3-0.1c-0.2,0.1-0.4,0.2-0.5,0.4s-0.5,0.4-1.2,0.7
			c-0.1,0-0.2-0.1-0.3-0.2c-0.2-0.2-0.4-0.4-0.5-0.7l-0.3-0.8c-0.1-0.3,0-0.9,0.4-1.7s0.8-1.7,1.4-2.6c0.5-0.9,1.1-1.7,1.6-2.4
			C59.3,183.9,59.7,183.5,59.9,183.4z M55.4,171.3c0.1-0.1,0.3-0.1,0.5-0.3c0.2-0.1,0.4-0.3,0.6-0.4c0.2-0.1,0.4-0.3,0.6-0.4
			c0.2-0.1,0.4-0.2,0.5-0.3c0.5,0,1,0.2,1.3,0.5c0.3,0.4,0.7,0.7,1.1,1c0.1,0.3,0.2,0.5,0.4,0.8s0.3,0.5,0.4,0.7
			c0.1,0.2,0.1,0.5,0.1,0.8s0,0.7,0.2,1.2c0,0.3,0,0.6,0.1,1c0,0.4,0,0.8-0.1,1.1c-0.1,0.4-0.2,0.7-0.4,1s-0.5,0.5-0.8,0.5
			c-0.5,0.2-1.1,0.2-1.8,0.1c-0.7-0.1-1.3-0.4-1.7-0.8c-0.3-0.1-0.5-0.4-0.6-0.8c-0.1-0.4-0.2-0.8-0.3-1.1c-0.4-0.9-0.5-1.7-0.4-2.4
			C55.1,172.9,55.2,172.1,55.4,171.3z"/>
	</g>
</g>
<g>
	<path class="st0" d="M317.2,148.6L317.2,148.6c-9-0.3-16-8-15.6-17.1l0,0c0.3-9,8-16,17.1-15.6l0,0c9,0.3,16,8,15.6,17.1l0,0
		C333.9,142.1,326.3,149,317.2,148.6z"/>
	<g>
		<path class="st1" d="M318.6,126.5c0.4,0,0.7,0.2,1,0.5s0.4,0.6,0.3,1l-0.4,0.8c0.1,0.1,0.2,0.4,0.3,0.6c0,0.1,0,0.3,0,0.4
			c0,0.5-0.1,0.9-0.2,1.3c-0.1,0.4-0.2,0.8-0.2,1.3l0,0.3c0,0.1,0,0.3-0.1,0.4c-0.1,0.2-0.1,0.3-0.1,0.4c-0.1,0.2-0.1,0.3-0.1,0.5
			l0,0.4c0,0.3,0,0.5-0.2,0.6c-0.1,0.2-0.2,0.4-0.3,0.6c-0.1,0.2-0.2,0.4-0.2,0.5c-0.1,0.2-0.2,0.4-0.2,0.6c0,0.1,0,0.2,0,0.4
			c0,0.1,0.1,0.3,0.2,0.4c0.1,0.1,0.2,0.3,0.3,0.4c0.1,0.1,0.3,0.2,0.4,0.2c0.2,0,0.4,0,0.5-0.1s0.3-0.2,0.4-0.4
			c0.1-0.1,0.3-0.2,0.4-0.3c0.1,0,0.3-0.2,0.4-0.1l0.6,0c0.2,0,0.2,0.1,0.3,0.2s0.1,0.3,0,0.5c0,0.1-0.1,0.2-0.4,0.4
			c-0.2,0.2-0.5,0.4-0.7,0.6c-0.3,0.2-0.5,0.4-0.8,0.7c-0.3,0.2-0.4,0.4-0.5,0.4c-0.1,0.2-0.3,0.4-0.4,0.8c-0.2,0.4-0.5,0.8-0.8,1.2
			c-0.3,0.4-0.6,0.7-0.9,1.1c-0.3,0.3-0.6,0.5-0.8,0.5c-0.2,0-0.3-0.1-0.6-0.2c-0.2-0.1-0.4-0.2-0.5-0.4c-0.2-0.2-0.3-0.4-0.4-0.5
			c-0.1-0.2-0.1-0.3-0.1-0.5l0-0.5c0-0.2,0-0.4,0-0.5c0-0.1-0.1-0.2-0.3-0.2l0-0.6l0.3-1l0.1-1.6c0.1-0.3,0.1-0.6,0.2-0.8
			s0.2-0.5,0.1-0.8l0-0.3c0-0.2,0.1-0.4,0.2-0.6c0.1-0.3,0.3-0.6,0.4-0.9c0.1-0.3,0.3-0.7,0.4-1c0.1-0.3,0.2-0.6,0.2-0.8
			c0-0.2,0-0.4-0.2-0.6c-0.2-0.3-0.4-0.4-0.8-0.3c-0.2,0-0.3,0.1-0.3,0.1c-0.1,0-0.4,0.1-0.9,0.1c-0.1,0-0.1,0-0.1-0.1
			c-0.1-0.1-0.1-0.3-0.1-0.5l0-0.5c0-0.2,0.2-0.5,0.7-0.9s0.9-0.8,1.4-1.1c0.5-0.4,1.1-0.7,1.5-1C318,126.7,318.4,126.5,318.6,126.5
			z M319,118.4c0.1,0,0.2,0,0.4,0c0.2,0,0.3-0.1,0.5-0.1c0.2,0,0.3-0.1,0.5-0.1c0.2,0,0.3-0.1,0.3-0.1c0.3,0.1,0.5,0.3,0.6,0.6
			c0.1,0.3,0.2,0.6,0.3,0.9c0,0.2,0,0.4,0,0.6c0,0.2,0,0.4,0,0.6c0,0.2-0.1,0.3-0.1,0.5c-0.1,0.2-0.2,0.5-0.1,0.8
			c-0.1,0.2-0.1,0.3-0.2,0.5c-0.1,0.2-0.2,0.5-0.3,0.6c-0.2,0.2-0.3,0.3-0.5,0.4c-0.1,0.1-0.3,0.1-0.6,0.1c-0.3-0.1-0.7-0.1-1-0.4
			c-0.4-0.2-0.7-0.6-0.8-0.9c-0.1-0.1-0.2-0.4-0.2-0.6s0.1-0.5,0.1-0.7c0-0.6,0.1-1.1,0.4-1.5C318.4,119.2,318.6,118.8,319,118.4z"
			/>
	</g>
</g>
<g>
	<path class="st0" d="M80.3,119.6L80.3,119.6c-7.8,4.6-17.8,2-22.4-5.9l0,0c-4.6-7.8-2-17.8,5.9-22.4l0,0c7.8-4.6,17.8-2,22.4,5.9
		l0,0C90.7,105,88.1,115,80.3,119.6z"/>
	<g>
		<path class="st1" d="M69.4,100.2c0.3-0.2,0.7-0.2,1.1-0.1c0.4,0.1,0.6,0.3,0.8,0.6l0.1,0.9c0.2,0.1,0.4,0.2,0.6,0.3
			c0.1,0.1,0.1,0.2,0.2,0.3c0.2,0.4,0.4,0.8,0.5,1.2c0.2,0.4,0.3,0.8,0.5,1.2l0.1,0.2c0,0.1,0.1,0.2,0.2,0.4c0,0.2,0.1,0.3,0.2,0.4
			c0,0.2,0.1,0.3,0.2,0.5l0.2,0.3c0.1,0.2,0.2,0.4,0.2,0.6c0,0.2,0.1,0.4,0.1,0.7c0,0.2,0.1,0.4,0.1,0.6c0,0.2,0.1,0.4,0.2,0.6
			c0,0.1,0.1,0.2,0.2,0.3c0.1,0.1,0.3,0.2,0.4,0.3c0.2,0.1,0.3,0.1,0.5,0.2c0.2,0.1,0.3,0,0.4-0.1c0.2-0.1,0.3-0.2,0.4-0.4
			c0.1-0.2,0.1-0.4,0.1-0.5c0.1-0.2,0.1-0.3,0.2-0.5c0.1-0.1,0.1-0.3,0.3-0.3l0.5-0.3c0.2-0.1,0.2,0,0.3,0c0.1,0.1,0.2,0.2,0.2,0.4
			c0,0.1,0,0.2-0.1,0.5c0,0.3-0.2,0.6-0.3,0.9c-0.1,0.4-0.2,0.6-0.3,1c-0.1,0.4-0.2,0.5-0.2,0.6c0,0.2,0,0.5,0.1,0.9
			c0,0.4,0,0.9,0,1.4c0,0.5-0.1,1-0.2,1.4s-0.2,0.7-0.5,0.8c-0.2,0.1-0.3,0.1-0.6,0.2c-0.2,0-0.4,0-0.7-0.1s-0.5-0.2-0.6-0.2
			c-0.2-0.1-0.3-0.2-0.4-0.4l-0.2-0.5c-0.1-0.2-0.2-0.3-0.2-0.4c-0.1-0.1-0.2-0.1-0.3,0l-0.3-0.5l-0.2-1l-0.8-1.4
			c-0.1-0.3-0.3-0.6-0.3-0.8s-0.1-0.5-0.3-0.7l-0.1-0.2c-0.1-0.2-0.2-0.4-0.2-0.6c-0.1-0.3-0.1-0.7-0.2-1c-0.1-0.3-0.1-0.7-0.3-1.1
			c-0.1-0.3-0.2-0.6-0.3-0.8s-0.2-0.3-0.5-0.4c-0.3-0.1-0.5-0.1-0.8,0.1c-0.2,0.1-0.2,0.2-0.2,0.3c-0.1,0.1-0.3,0.3-0.7,0.5
			c-0.1,0-0.1,0-0.2-0.1c-0.2-0.1-0.3-0.2-0.4-0.4l-0.2-0.5c-0.1-0.2-0.1-0.6,0.1-1.1c0.2-0.5,0.3-1.2,0.6-1.7
			c0.2-0.6,0.5-1.2,0.8-1.7C69.1,100.6,69.3,100.3,69.4,100.2z M65.4,93.1c0.1,0,0.2-0.1,0.3-0.2c0.2-0.1,0.2-0.2,0.4-0.3
			c0.2-0.1,0.2-0.2,0.4-0.3c0.2-0.1,0.2-0.2,0.2-0.2c0.3-0.1,0.6,0,0.8,0.2c0.2,0.2,0.5,0.3,0.8,0.6c0.1,0.2,0.2,0.3,0.3,0.5
			c0.1,0.2,0.2,0.3,0.3,0.5c0.1,0.2,0.1,0.3,0.2,0.5c0,0.2,0.1,0.5,0.3,0.7c0,0.2,0.1,0.3,0.1,0.6c0,0.2,0.1,0.5,0,0.7
			c0,0.3-0.1,0.4-0.2,0.6c-0.1,0.2-0.2,0.3-0.4,0.4c-0.3,0.1-0.6,0.3-1.1,0.3c-0.4,0-0.9-0.1-1.2-0.3c-0.2-0.1-0.4-0.2-0.5-0.4
			c-0.1-0.2-0.2-0.5-0.3-0.6c-0.3-0.5-0.5-1-0.5-1.5C65.3,94.2,65.3,93.7,65.4,93.1z"/>
	</g>
</g>
<g>
	<path class="st0" d="M199.2,236.2L199.2,236.2c-55.4,0-100.3-44.9-100.3-100.2l0,0c0-55.4,44.9-100.2,100.2-100.2l0,0
		c55.4,0,100.2,44.9,100.2,100.2l0,0C299.4,191.4,254.5,236.2,199.2,236.2z"/>
	<g>
		<path class="st1" d="M201.6,100.5c2.4,0,4.4,0.9,5.9,2.6c1.6,1.8,2.3,3.6,2.3,5.6l-1.9,5.9c0.8,0.8,1.4,2,1.7,3.6
			c0.1,0.7,0.2,1.5,0.2,2.3c0,2.8-0.3,5.4-1,7.8c-0.6,2.4-1,5.1-1,8.1v1.7c0,0.7-0.1,1.5-0.2,2.4c-0.1,0.9-0.4,1.8-0.6,2.6
			c-0.3,1-0.6,2-0.8,3.2v2.3c0,1.6-0.2,2.8-0.7,3.8s-1,2.3-1.6,3.8c-0.3,1.1-0.7,2.3-1.4,3.5c-0.6,1.2-1,2.6-1,4.1
			c0,0.6,0.1,1.3,0.4,2.2c0.3,0.9,0.7,1.8,1.3,2.8c0.6,0.9,1.2,1.7,2,2.3s1.7,1,2.6,1c1.1,0,2.2-0.4,3.1-1.1
			c0.9-0.7,1.7-1.5,2.2-2.3c0.7-0.7,1.4-1.3,2.2-1.8s1.7-0.7,2.6-0.7h4c0.8,0,1.3,0.4,1.5,1.3c0.1,0.8,0.2,1.8,0.2,3
			c0,0.4-0.6,1.3-1.9,2.5c-1.3,1.3-2.7,2.6-4.2,4.1c-1.6,1.5-3.1,2.9-4.7,4.2c-1.6,1.3-2.6,2.2-3.2,2.6c-0.4,1-1.3,2.7-2.8,5.1
			c-1.4,2.4-3,4.8-4.7,7.3s-3.5,4.7-5.4,6.6c-1.9,1.9-3.6,2.9-5,2.9c-1,0-2.1-0.3-3.3-1c-1.2-0.6-2.3-1.5-3.3-2.5
			c-1-1.1-1.8-2.2-2.4-3.3c-0.6-1.1-1-2.3-1-3.4v-3.4c0-1.1-0.1-2.1-0.2-3c-0.1-0.8-0.6-1.3-1.5-1.3v-4l1.7-5.9v-10
			c0-2.1,0.3-3.8,0.8-5.1c0.6-1.3,0.8-2.9,0.8-4.9v-1.9c0-1,0.3-2.4,1-4.2c0.6-1.8,1.3-3.8,2-5.9c0.7-2.1,1.4-4.2,2-6.3
			c0.6-2,1-3.8,1-5.4c0-1.1-0.5-2.4-1.4-3.7s-2.4-2-4.6-2c-0.8,0-1.6,0.3-2.2,0.8c-0.6,0.6-2.4,0.8-5.4,0.8
			c-0.3-0.1-0.6-0.5-0.8-1.1c-0.6-0.8-0.8-1.9-0.8-3.2v-3.4c0-1.3,1.2-3.1,3.7-5.6s5.3-4.9,8.5-7.4s6.3-4.7,9.2-6.6
			C198.8,101.4,200.7,100.5,201.6,100.5z M202.2,50.5c0.6,0,1.3-0.1,2.2-0.3s1.9-0.4,2.9-0.6c1-0.2,1.9-0.4,2.9-0.6
			c0.9-0.2,1.6-0.3,2-0.3c2,0.7,3.2,1.9,3.8,3.6c0.6,1.7,1.4,3.5,2.5,5.3c0,1.1,0.1,2.3,0.3,3.4c0.2,1.1,0.3,2.2,0.3,3.2
			c0,0.8-0.3,1.9-0.8,3.1c-0.6,1.2-0.8,2.7-0.8,4.6c-0.3,1-0.7,2.2-1.2,3.6s-1.1,2.7-1.9,3.9c-0.8,1.2-1.7,2.2-2.8,3s-2.3,1-3.7,0.7
			c-2,0-4.1-0.7-6.5-2c-2.3-1.3-4.1-3.1-5.2-5.2c-1-0.8-1.3-2.1-1.1-3.8c0.3-1.7,0.4-3.2,0.4-4.5c0-3.8,0.6-6.9,1.9-9.3
			C198.8,55.7,200.4,53.1,202.2,50.5z"/>
	</g>
</g>
<g id="flat">
	<path class="st2" d="M344,488H72L40,232h336L344,488z"/>
	<path class="st0" d="M464,488h-96l-16-160h128L464,488z"/>
	<path class="st0" d="M473.7,390.9l-4.7,47.2l-107.9-19l-4.9-48.9L473.7,390.9z"/>
	<path class="st3" d="M488,296H344l8-32h128L488,296z"/>
	<path class="st4" d="M448,264h-16v-80l24-48h16l-24,56V264z"/>
	<g>
		<path class="st5" d="M184,232h48v256h-48V232z"/>
		<path class="st5" d="M144,488h-40L88,232h48L144,488z"/>
		<path class="st5" d="M312,488h-40l8-256h48L312,488z"/>
	</g>
	<circle class="st3" cx="208" cy="354.5" r="98.5"/>
	<path class="st4" d="M473.7,390.9l-4.7,47.2l-107.9-19l-4.9-48.9L473.7,390.9z"/>
	<path class="st5" d="M336,296h160v32H336V296z"/>
	<path class="st3" d="M40,200h336c8.8,0,16,7.2,16,16l0,0c0,8.8-7.2,16-16,16H40c-8.8,0-16-7.2-16-16l0,0C24,207.2,31.2,200,40,200z
		"/>
	<path class="st6" d="M432,248h16v16h-16V248z"/>
</g>
<g>
	<g>
		<path class="st2" d="M208.6,332.7c1.5,0,2.7,0.6,3.6,1.6c1,1.1,1.4,2.2,1.4,3.4l-1.2,3.6c0.5,0.5,0.9,1.2,1,2.2
			c0.1,0.4,0.1,0.9,0.1,1.4c0,1.7-0.2,3.3-0.6,4.8c-0.4,1.5-0.6,3.1-0.6,5v1c0,0.4-0.1,0.9-0.1,1.5c-0.1,0.6-0.2,1.1-0.4,1.6
			c-0.2,0.6-0.4,1.2-0.5,2v1.4c0,1-0.1,1.7-0.4,2.3s-0.6,1.4-1,2.3c-0.2,0.7-0.4,1.4-0.9,2.2c-0.4,0.7-0.6,1.6-0.6,2.5
			c0,0.4,0.1,0.8,0.2,1.4c0.2,0.6,0.4,1.1,0.8,1.7c0.4,0.6,0.7,1,1.2,1.4s1,0.6,1.6,0.6c0.7,0,1.4-0.2,1.9-0.7
			c0.6-0.4,1-0.9,1.4-1.4c0.4-0.4,0.9-0.8,1.4-1.1c0.5-0.3,1-0.4,1.6-0.4h2.5c0.5,0,0.8,0.2,0.9,0.8c0.1,0.5,0.1,1.1,0.1,1.8
			c0,0.2-0.4,0.8-1.2,1.5c-0.8,0.8-1.7,1.6-2.6,2.5c-1,0.9-1.9,1.8-2.9,2.6c-1,0.8-1.6,1.4-2,1.6c-0.2,0.6-0.8,1.7-1.7,3.1
			c-0.9,1.5-1.8,3-2.9,4.5s-2.2,2.9-3.3,4.1s-2.2,1.8-3.1,1.8c-0.6,0-1.3-0.2-2-0.6c-0.7-0.4-1.4-0.9-2-1.5c-0.6-0.7-1.1-1.4-1.5-2
			s-0.6-1.4-0.6-2.1v-2.1c0-0.7-0.1-1.3-0.1-1.8c-0.1-0.5-0.4-0.8-0.9-0.8v-2.5l1-3.6v-6.1c0-1.3,0.2-2.3,0.5-3.1
			c0.4-0.8,0.5-1.8,0.5-3v-1.2c0-0.6,0.2-1.5,0.6-2.6c0.4-1.1,0.8-2.3,1.2-3.6s0.9-2.6,1.2-3.9c0.4-1.2,0.6-2.3,0.6-3.3
			c0-0.7-0.3-1.5-0.9-2.3c-0.6-0.8-1.5-1.2-2.8-1.2c-0.5,0-1,0.2-1.4,0.5c-0.4,0.4-1.5,0.5-3.3,0.5c-0.2-0.1-0.4-0.3-0.5-0.7
			c-0.4-0.5-0.5-1.2-0.5-2v-2.1c0-0.8,0.7-1.9,2.3-3.4s3.3-3,5.2-4.5s3.9-2.9,5.7-4.1C206.9,333.2,208.1,332.7,208.6,332.7z
			 M209,301.9c0.4,0,0.8-0.1,1.4-0.2c0.6-0.1,1.2-0.2,1.8-0.4c0.6-0.1,1.2-0.2,1.8-0.4c0.6-0.1,1-0.2,1.2-0.2c1.2,0.4,2,1.2,2.3,2.2
			c0.4,1,0.9,2.2,1.5,3.3c0,0.7,0.1,1.4,0.2,2.1s0.2,1.4,0.2,2c0,0.5-0.2,1.2-0.5,1.9c-0.4,0.7-0.5,1.7-0.5,2.8
			c-0.2,0.6-0.4,1.4-0.7,2.2c-0.3,0.9-0.7,1.7-1.2,2.4c-0.5,0.7-1,1.4-1.7,1.8s-1.4,0.6-2.3,0.4c-1.2,0-2.5-0.4-4-1.2
			c-1.4-0.8-2.5-1.9-3.2-3.2c-0.6-0.5-0.8-1.3-0.7-2.3c0.2-1,0.2-2,0.2-2.8c0-2.3,0.4-4.2,1.2-5.7
			C206.9,305.1,207.9,303.5,209,301.9z"/>
	</g>
</g>
</svg>
