<?xml version="1.0" encoding="utf-8"?>
<!-- Generator: Adobe Illustrator 23.1.0, SVG Export Plug-In . SVG Version: 6.00 Build 0)  -->
<svg version="1.1" id="Layer_1" xmlns="http://www.w3.org/2000/svg" xmlns:xlink="http://www.w3.org/1999/xlink" x="0px" y="0px"
	 viewBox="0 0 240 240" style="enable-background:new 0 0 240 240;" xml:space="preserve">
<style type="text/css">
	.st0{fill:url(#SVGID_1_);}
	.st1{fill:#FFFFFF;}
	.st2{opacity:5.000000e-02;enable-background:new    ;}
	.st3{opacity:7.000000e-02;enable-background:new    ;}
</style>
<g>
	
		<linearGradient id="SVGID_1_" gradientUnits="userSpaceOnUse" x1="-89.6141" y1="316.3208" x2="-78.3638" y2="335.8071" gradientTransform="matrix(5 0 0 -5 540 1750)">
		<stop  offset="0" style="stop-color:#8F9194"/>
		<stop  offset="0.147" style="stop-color:#91A3A9"/>
		<stop  offset="0.432" style="stop-color:#8F9194"/>
		<stop  offset="0.824" style="stop-color:#6E7576"/>
		<stop  offset="1" style="stop-color:#696A6D"/>
	</linearGradient>
	<path class="st0" d="M176.2,119.7c0,31.1-25.2,56.3-56.2,56.3c-14.2,0-27.2-5.3-37.1-14c-2.8-2.4,0-8.4-2.3-11.3
		c-2.2-2.9-9.4-2.7-11.1-6c-3.7-7.5-5.8-15.9-5.8-24.9s2.1-17.4,5.8-24.9c1.9-3.8,8.4-2.8,11.1-6c2.2-2.7,0.4-9.7,3.1-12
		c9.8-8.3,22.5-13.3,36.3-13.3C151.1,63.4,176.2,88.6,176.2,119.7z"/>
	<path class="st1" d="M142.5,110.1v19.1c0,1-0.6,2-1.5,2.5l-58.1,30.2c-5.5-4.8-10.1-10.7-13.4-17.4l47.9-24.9L69.5,94.8
		c3.4-7,8.3-13.1,14.1-18l57.3,30.9C141.9,108.1,142.5,109.1,142.5,110.1z"/>
	<path class="st2" d="M142.4,105.2L86.1,74.8c-0.4,0.3-0.8,0.6-1.2,0.9s-0.8,0.6-1.2,1l57.3,30.9c0.9,0.5,1.5,1.4,1.5,2.5v19.1
		c0,1.1-0.6,2-1.5,2.5l-58.1,30.2c0.4,0.4,0.7,0.7,1.1,1c0.4,0.3,0.8,0.7,1.2,1l57-29.7c1.9-1,3-2.9,3-5v-19.1
		C145.3,108,144.2,106.1,142.4,105.2z M69.5,94.8c-0.2,0.4-0.4,0.8-0.6,1.3s-0.4,0.8-0.6,1.3l42.9,22.3L68.4,142
		c0.2,0.5,0.4,0.9,0.6,1.3s0.4,0.8,0.6,1.3l47.9-24.9L69.5,94.8z"/>
	<path class="st3" d="M141.7,106.4L84.8,75.8c-0.4,0.3-0.8,0.6-1.2,1l57.3,30.9c0.9,0.5,1.5,1.4,1.5,2.5v19.1c0,1.1-0.6,2-1.5,2.5
		l-58.1,30.2c0.4,0.4,0.7,0.7,1.1,1l57.6-30c1.4-0.7,2.3-2.2,2.3-3.7v-19.1C143.9,108.5,143.1,107.1,141.7,106.4z M69.5,94.8
		c-0.2,0.4-0.4,0.8-0.6,1.3l45.4,23.6L69,143.3c0.2,0.4,0.4,0.8,0.6,1.3l47.9-24.9L69.5,94.8z"/>
</g>
</svg>
