<?xml version="1.0" encoding="utf-8"?>
<!-- Generator: Adobe Illustrator 23.1.0, SVG Export Plug-In . SVG Version: 6.00 Build 0)  -->
<svg version="1.1" id="Layer_1" xmlns="http://www.w3.org/2000/svg" xmlns:xlink="http://www.w3.org/1999/xlink" x="0px" y="0px"
	 viewBox="0 0 512 512" style="enable-background:new 0 0 512 512;" xml:space="preserve">
<style type="text/css">
	.st0{fill:#E82F3E;}
	.st1{fill:#0296E5;}
	.st2{fill:#EAEAE8;}
	.st3{fill:#0276B4;}
	.st4{fill:#CBCBCB;}
	.st5{fill:#D18D28;}
	.st6{fill:#FBB540;}
	.st7{fill:#015078;}
</style>
<g id="flat_1_">
	<path class="st0" d="M345.9,490.9h-272l-32-256h336L345.9,490.9z"/>
	<path class="st1" d="M465.9,490.9h-96l-16-160h128L465.9,490.9z"/>
	<path class="st1" d="M475.6,393.7l-4.7,47.2l-107.9-19l-4.9-48.9L475.6,393.7z"/>
	<path class="st2" d="M489.9,298.9h-144l8-32h128L489.9,298.9z"/>
	<path class="st3" d="M449.9,266.9h-16v-80l24-48h16l-24,56V266.9z"/>
	<g>
		<path class="st4" d="M185.9,234.9h48v256h-48V234.9z"/>
		<path class="st4" d="M145.9,490.9h-40l-16-256h48L145.9,490.9z"/>
		<path class="st4" d="M313.9,490.9h-40l8-256h48L313.9,490.9z"/>
	</g>
	<path class="st5" d="M293.6,122.9c4.1-10.3-0.9-21.9-11.1-26c0,0,0,0,0,0c4.1-10.3-0.9-21.9-11.1-26c-10.3-4.1-21.9,0.9-26,11.1
		l0,0c-10.3-4.1-21.9,0.9-26,11.1s0.9,21.9,11.1,26c0.2,0.1,0.4,0.1,0.6,0.2c0,0,0,0,0,0c-4.1,10.3,0.9,21.9,11.1,26
		c10.3,4.1,21.9-0.9,26-11.1l0,0c0,0,0,0,0,0C278.4,137.9,289.6,132.9,293.6,122.9z"/>
	<path class="st6" d="M189.8,101.9c-4-10.3-15.6-15.4-25.9-11.3c-4-10.3-15.6-15.4-25.9-11.3s-15.4,15.6-11.3,25.9
		c-10.3,4-15.4,15.6-11.3,25.9c4,10.3,15.6,15.4,25.9,11.3c0.2-0.1,0.4-0.2,0.6-0.3c0,0,0,0,0,0c4,10.3,15.6,15.4,25.9,11.3
		c10.3-4,15.4-15.6,11.3-25.9l0,0c0,0,0,0,0,0C189,123.3,193.7,111.9,189.8,101.9z"/>
	<path class="st5" d="M101.8,50.9c-4-10.3-15.6-15.4-25.9-11.3c0,0,0,0,0,0c-4-10.3-15.6-15.4-25.9-11.3S34.6,43.9,38.6,54.1
		c-10.3,4-15.4,15.6-11.3,25.9s15.6,15.4,25.9,11.3c0.2-0.1,0.4-0.2,0.6-0.3c0,0,0,0,0,0c4,10.3,15.6,15.4,25.9,11.3
		s15.4-15.6,11.3-25.9l0,0c0,0,0,0,0,0C101,72.3,105.7,61,101.8,50.9z"/>
	<path class="st6" d="M121.9,186.9c0-11-9-20-20-20c0-11-9-20-20-20s-20,9-20,20c-11,0-20,9-20,20s9,20,20,20c0.2,0,0.4,0,0.7,0v0
		c0,11,8.9,20,20,20s20-8.9,20-20c0,0,0,0,0,0c0,0,0,0,0,0C113.4,206.5,121.9,197.6,121.9,186.9z"/>
	<path class="st5" d="M201.9,186.9c0-11-9-20-20-20c0-11-9-20-20-20s-20,9-20,20c-11,0-20,9-20,20s9,20,20,20c0.2,0,0.4,0,0.7,0v0
		c0,11,9,20,20,20s20-9,20-20c0,0,0,0,0,0C193.4,206.5,201.9,197.6,201.9,186.9z"/>
	<path class="st6" d="M281.9,186.9c0-11-9-20-20-20c0-11-9-20-20-20s-20,9-20,20c-11,0-20,9-20,20s9,20,20,20c0.2,0,0.4,0,0.7,0v0
		c0,11,9,20,20,20c11,0,20-9,20-20c0,0,0,0,0,0C273.4,206.5,281.9,197.6,281.9,186.9z"/>
	<path class="st5" d="M361.9,186.9c0-11-9-20-20-20c0-11-9-20-20-20s-20,9-20,20c-11,0-20,9-20,20s9,20,20,20c0.2,0,0.4,0,0.7,0v0
		c0,11,9,20,20,20s20-9,20-20c0,0,0,0,0,0C353.4,206.5,361.9,197.6,361.9,186.9z"/>
	<path class="st6" d="M391.9,98.5c4.9-9.9,0.8-21.9-9.1-26.8c4.9-9.9,0.8-21.9-9.1-26.8s-21.9-0.8-26.8,9.1
		c-9.9-4.9-21.9-0.8-26.8,9.1s-0.8,21.9,9.1,26.8l0,0c0.2,0.1,0.4,0.2,0.6,0.3c0,0,0,0,0,0c-4.9,9.9-0.8,21.9,9.1,26.8
		c9.9,4.9,21.9,0.8,26.8-9.1c0,0,0,0,0,0C375.5,112.3,387.1,108.2,391.9,98.5z"/>
	<circle class="st2" cx="208.4" cy="355.3" r="100.3"/>
	<path class="st3" d="M475.6,393.7l-4.7,47.2l-107.9-19l-4.9-48.9L475.6,393.7z"/>
	<path class="st4" d="M337.9,298.9h160v32h-160V298.9z"/>
	<path class="st2" d="M41.9,202.9h336c8.8,0,16,7.2,16,16l0,0c0,8.8-7.2,16-16,16h-336c-8.8,0-16-7.2-16-16l0,0
		C25.9,210,33.1,202.9,41.9,202.9z"/>
	<path class="st7" d="M433.9,250.9h16v16h-16V250.9z"/>
</g>
<path class="st0" d="M240.3,375.7l-36,21.9c-15.9,9.7-36.2-1.8-36.2-20.4l0-43.8c0-18.6,20.4-30,36.2-20.4l36,21.9
	C255.6,344.3,255.6,366.4,240.3,375.7z"/>
</svg>
